<svg xmlns="http://www.w3.org/2000/svg" xmlns:xlink="http://www.w3.org/1999/xlink" xmlns:lucid="lucid" width="1128" height="1249"><g transform="translate(761 910)" lucid:page-tab-id="0_0"><path d="M-1000-1500h4500v2500h-4500z" fill="#fff"/><path d="M-680-377.27V-414a6 6 0 0 1 6-6h308a6 6 0 0 1 6 6v36.73z" stroke="#5e5e5e" stroke-width="3" fill="#fff"/><path d="M-360-377.27v289a6 6 0 0 1-6 6h-308a6 6 0 0 1-6-6v-289z" stroke="#5e5e5e" stroke-width="3" fill="none"/><use xlink:href="#a" transform="matrix(1,0,0,1,-680,-420) translate(136.60493827160494 25.944444444444443)"/><path d="M-20-415.6v-36.73a6 6 0 0 1 6-6h308a6 6 0 0 1 6 6v36.73z" stroke="#5e5e5e" stroke-width="3" fill="#fff"/><path d="M300-415.6V-46a6 6 0 0 1-6 6H-14a6 6 0 0 1-6-6v-369.6z" stroke="#5e5e5e" stroke-width="3" fill="none"/><use xlink:href="#b" transform="matrix(1,0,0,1,-20,-458.33333333333326) translate(113.16790123456789 26.122222222222224)"/><path d="M-400 1.67V-34a6 6 0 0 1 6-6h308a6 6 0 0 1 6 6V1.67z" stroke="#5e5e5e" stroke-width="3" fill="#fff"/><path d="M-80 1.67V254a6 6 0 0 1-6 6h-308a6 6 0 0 1-6-6V1.67z" stroke="#5e5e5e" stroke-width="3" fill="none"/><use xlink:href="#c" transform="matrix(1,0,0,1,-400,-39.99999999999994) translate(115.58641975308643 25.444444444444443)"/><path d="M-340-778.33V-814a6 6 0 0 1 6-6h308a6 6 0 0 1 6 6v35.67z" stroke="#5e5e5e" stroke-width="3" fill="#fff"/><path d="M-20-778.33V-526a6 6 0 0 1-6 6h-308a6 6 0 0 1-6-6v-252.33z" stroke="#5e5e5e" stroke-width="3" fill="none"/><use xlink:href="#d" transform="matrix(1,0,0,1,-339.99999999999994,-820) translate(100.1543209876543 25.444444444444443)"/><path d="M-680-371.27a6 6 0 0 1 6-6h308a6 6 0 0 1 6 6v281.94a6 6 0 0 1-6 6h-308a6 6 0 0 1-6-6z" fill="none"/><use xlink:href="#e" transform="matrix(1,0,0,1,-680,-377.2666666666667) translate(130.4320987654321 31.444444444444436)"/><use xlink:href="#f" transform="matrix(1,0,0,1,-680,-377.2666666666667) translate(160 31.444444444444436)"/><use xlink:href="#g" transform="matrix(1,0,0,1,-680,-377.2666666666667) translate(83.5493827160494 58.11111111111111)"/><use xlink:href="#h" transform="matrix(1,0,0,1,-680,-377.2666666666667) translate(95.89506172839508 58.11111111111111)"/><use xlink:href="#i" transform="matrix(1,0,0,1,-680,-377.2666666666667) translate(108.24074074074075 58.11111111111111)"/><use xlink:href="#j" transform="matrix(1,0,0,1,-680,-377.2666666666667) translate(176.08024691358025 58.11111111111111)"/><use xlink:href="#g" transform="matrix(1,0,0,1,-680,-377.2666666666667) translate(91.57407407407408 84.77777777777777)"/><use xlink:href="#h" transform="matrix(1,0,0,1,-680,-377.2666666666667) translate(103.91975308641976 84.77777777777777)"/><use xlink:href="#k" transform="matrix(1,0,0,1,-680,-377.2666666666667) translate(116.26543209876543 84.77777777777777)"/><use xlink:href="#j" transform="matrix(1,0,0,1,-680,-377.2666666666667) translate(168.05555555555554 84.77777777777777)"/><use xlink:href="#g" transform="matrix(1,0,0,1,-680,-377.2666666666667) translate(84.84567901234568 111.44444444444443)"/><use xlink:href="#h" transform="matrix(1,0,0,1,-680,-377.2666666666667) translate(97.19135802469137 111.44444444444443)"/><use xlink:href="#l" transform="matrix(1,0,0,1,-680,-377.2666666666667) translate(109.53703703703704 111.44444444444443)"/><use xlink:href="#j" transform="matrix(1,0,0,1,-680,-377.2666666666667) translate(174.78395061728395 111.44444444444443)"/><use xlink:href="#g" transform="matrix(1,0,0,1,-680,-377.2666666666667) translate(63.827160493827165 138.11111111111111)"/><use xlink:href="#h" transform="matrix(1,0,0,1,-680,-377.2666666666667) translate(76.17283950617285 138.11111111111111)"/><use xlink:href="#m" transform="matrix(1,0,0,1,-680,-377.2666666666667) translate(88.51851851851852 138.11111111111111)"/><use xlink:href="#j" transform="matrix(1,0,0,1,-680,-377.2666666666667) translate(195.80246913580248 138.11111111111111)"/><use xlink:href="#g" transform="matrix(1,0,0,1,-680,-377.2666666666667) translate(80.4320987654321 164.77777777777777)"/><use xlink:href="#h" transform="matrix(1,0,0,1,-680,-377.2666666666667) translate(92.77777777777779 164.77777777777777)"/><use xlink:href="#n" transform="matrix(1,0,0,1,-680,-377.2666666666667) translate(105.12345679012346 164.77777777777777)"/><use xlink:href="#j" transform="matrix(1,0,0,1,-680,-377.2666666666667) translate(179.19753086419752 164.77777777777777)"/><use xlink:href="#g" transform="matrix(1,0,0,1,-680,-377.2666666666667) translate(8.827160493827137 191.44444444444443)"/><use xlink:href="#h" transform="matrix(1,0,0,1,-680,-377.2666666666667) translate(21.172839506172814 191.44444444444443)"/><use xlink:href="#o" transform="matrix(1,0,0,1,-680,-377.2666666666667) translate(33.51851851851849 191.44444444444443)"/><use xlink:href="#p" transform="matrix(1,0,0,1,-680,-377.2666666666667) translate(172.96296296296296 191.44444444444443)"/><use xlink:href="#g" transform="matrix(1,0,0,1,-680,-377.2666666666667) translate(5.15432098765433 218.1111111111111)"/><use xlink:href="#h" transform="matrix(1,0,0,1,-680,-377.2666666666667) translate(17.500000000000007 218.1111111111111)"/><use xlink:href="#q" transform="matrix(1,0,0,1,-680,-377.2666666666667) translate(29.845679012345688 218.1111111111111)"/><use xlink:href="#r" transform="matrix(1,0,0,1,-680,-377.2666666666667) translate(206.26543209876544 218.1111111111111)"/><use xlink:href="#g" transform="matrix(1,0,0,1,-680,-377.2666666666667) translate(81.11111111111111 244.77777777777774)"/><use xlink:href="#h" transform="matrix(1,0,0,1,-680,-377.2666666666667) translate(93.4567901234568 244.77777777777774)"/><use xlink:href="#s" transform="matrix(1,0,0,1,-680,-377.2666666666667) translate(105.80246913580247 244.77777777777774)"/><use xlink:href="#j" transform="matrix(1,0,0,1,-680,-377.2666666666667) translate(178.5185185185185 244.77777777777774)"/><use xlink:href="#g" transform="matrix(1,0,0,1,-680,-377.2666666666667) translate(69.93827160493828 271.4444444444444)"/><use xlink:href="#h" transform="matrix(1,0,0,1,-680,-377.2666666666667) translate(82.28395061728396 271.4444444444444)"/><use xlink:href="#t" transform="matrix(1,0,0,1,-680,-377.2666666666667) translate(94.62962962962963 271.4444444444444)"/><use xlink:href="#u" transform="matrix(1,0,0,1,-680,-377.2666666666667) translate(164.93827160493828 271.4444444444444)"/><path d="M-340-772.33a6 6 0 0 1 6-6h308a6 6 0 0 1 6 6V-526a6 6 0 0 1-6 6h-308a6 6 0 0 1-6-6z" fill="none"/><g><use xlink:href="#e" transform="matrix(1,0,0,1,-339.99999999999994,-778.3333333333335) translate(130.4320987654321 40.61111111111112)"/><use xlink:href="#f" transform="matrix(1,0,0,1,-339.99999999999994,-778.3333333333335) translate(160 40.61111111111112)"/><use xlink:href="#g" transform="matrix(1,0,0,1,-339.99999999999994,-778.3333333333335) translate(98.95061728395062 67.2777777777778)"/><use xlink:href="#h" transform="matrix(1,0,0,1,-339.99999999999994,-778.3333333333335) translate(111.2962962962963 67.2777777777778)"/><use xlink:href="#i" transform="matrix(1,0,0,1,-339.99999999999994,-778.3333333333335) translate(123.64197530864197 67.2777777777778)"/><use xlink:href="#v" transform="matrix(1,0,0,1,-339.99999999999994,-778.3333333333335) translate(191.48148148148147 67.2777777777778)"/><use xlink:href="#g" transform="matrix(1,0,0,1,-339.99999999999994,-778.3333333333335) translate(50.86419753086419 93.94444444444446)"/><use xlink:href="#h" transform="matrix(1,0,0,1,-339.99999999999994,-778.3333333333335) translate(63.209876543209866 93.94444444444446)"/><use xlink:href="#w" transform="matrix(1,0,0,1,-339.99999999999994,-778.3333333333335) translate(75.55555555555554 93.94444444444446)"/><use xlink:href="#x" transform="matrix(1,0,0,1,-339.99999999999994,-778.3333333333335) translate(205.06172839506172 93.94444444444446)"/><use xlink:href="#y" transform="matrix(1,0,0,1,-339.99999999999994,-778.3333333333335) translate(234.62962962962962 93.94444444444446)"/><use xlink:href="#g" transform="matrix(1,0,0,1,-339.99999999999994,-778.3333333333335) translate(73.08641975308643 120.61111111111111)"/><use xlink:href="#h" transform="matrix(1,0,0,1,-339.99999999999994,-778.3333333333335) translate(85.43209876543212 120.61111111111111)"/><use xlink:href="#z" transform="matrix(1,0,0,1,-339.99999999999994,-778.3333333333335) translate(97.77777777777779 120.61111111111111)"/><use xlink:href="#x" transform="matrix(1,0,0,1,-339.99999999999994,-778.3333333333335) translate(182.8395061728395 120.61111111111111)"/><use xlink:href="#y" transform="matrix(1,0,0,1,-339.99999999999994,-778.3333333333335) translate(212.4074074074074 120.61111111111111)"/><use xlink:href="#g" transform="matrix(1,0,0,1,-339.99999999999994,-778.3333333333335) translate(69.93827160493828 147.27777777777777)"/><use xlink:href="#h" transform="matrix(1,0,0,1,-339.99999999999994,-778.3333333333335) translate(82.28395061728396 147.27777777777777)"/><use xlink:href="#t" transform="matrix(1,0,0,1,-339.99999999999994,-778.3333333333335) translate(94.62962962962963 147.27777777777777)"/><use xlink:href="#A" transform="matrix(1,0,0,1,-339.99999999999994,-778.3333333333335) translate(164.93827160493828 147.27777777777777)"/><use xlink:href="#g" transform="matrix(1,0,0,1,-339.99999999999994,-778.3333333333335) translate(82.37654320987654 173.94444444444446)"/><use xlink:href="#h" transform="matrix(1,0,0,1,-339.99999999999994,-778.3333333333335) translate(94.72222222222223 173.94444444444446)"/><use xlink:href="#B" transform="matrix(1,0,0,1,-339.99999999999994,-778.3333333333335) translate(107.0679012345679 173.94444444444446)"/><use xlink:href="#x" transform="matrix(1,0,0,1,-339.99999999999994,-778.3333333333335) translate(173.54938271604937 173.94444444444446)"/><use xlink:href="#C" transform="matrix(1,0,0,1,-339.99999999999994,-778.3333333333335) translate(203.11728395061726 173.94444444444446)"/><use xlink:href="#g" transform="matrix(1,0,0,1,-339.99999999999994,-778.3333333333335) translate(94.04320987654322 200.61111111111111)"/><use xlink:href="#h" transform="matrix(1,0,0,1,-339.99999999999994,-778.3333333333335) translate(106.3888888888889 200.61111111111111)"/><use xlink:href="#D" transform="matrix(1,0,0,1,-339.99999999999994,-778.3333333333335) translate(118.73456790123457 200.61111111111111)"/><use xlink:href="#E" transform="matrix(1,0,0,1,-339.99999999999994,-778.3333333333335) translate(174.2283950617284 200.61111111111111)"/><use xlink:href="#g" transform="matrix(1,0,0,1,-339.99999999999994,-778.3333333333335) translate(49.5679012345679 227.27777777777777)"/><use xlink:href="#h" transform="matrix(1,0,0,1,-339.99999999999994,-778.3333333333335) translate(61.913580246913575 227.27777777777777)"/><use xlink:href="#F" transform="matrix(1,0,0,1,-339.99999999999994,-778.3333333333335) translate(74.25925925925925 227.27777777777777)"/><use xlink:href="#G" transform="matrix(1,0,0,1,-339.99999999999994,-778.3333333333335) translate(174.19753086419752 227.27777777777777)"/></g><path d="M-20-410.67a6 6 0 0 1 6-6h308a6 6 0 0 1 6 6v346.34a6 6 0 0 1-6 6H-14a6 6 0 0 1-6-6z" fill="none"/><g><use xlink:href="#H" transform="matrix(1,0,0,1,-19.999999999999943,-416.6666666666666) translate(129.24938271604938 27.29682539682535)"/><use xlink:href="#I" transform="matrix(1,0,0,1,-19.999999999999943,-416.6666666666666) translate(160 27.29682539682535)"/><use xlink:href="#J" transform="matrix(1,0,0,1,-19.999999999999943,-416.6666666666666) translate(80.49135802469137 58.66190476190472)"/><use xlink:href="#K" transform="matrix(1,0,0,1,-19.999999999999943,-416.6666666666666) translate(93.33086419753087 58.66190476190472)"/><use xlink:href="#L" transform="matrix(1,0,0,1,-19.999999999999943,-416.6666666666666) translate(106.17037037037038 58.66190476190472)"/><use xlink:href="#M" transform="matrix(1,0,0,1,-19.999999999999943,-416.6666666666666) translate(176.72345679012346 58.66190476190472)"/><use xlink:href="#J" transform="matrix(1,0,0,1,-19.999999999999943,-416.6666666666666) translate(81.8395061728395 90.02698412698409)"/><use xlink:href="#K" transform="matrix(1,0,0,1,-19.999999999999943,-416.6666666666666) translate(94.67901234567901 90.02698412698409)"/><use xlink:href="#N" transform="matrix(1,0,0,1,-19.999999999999943,-416.6666666666666) translate(107.51851851851852 90.02698412698409)"/><use xlink:href="#M" transform="matrix(1,0,0,1,-19.999999999999943,-416.6666666666666) translate(175.37530864197532 90.02698412698409)"/><use xlink:href="#J" transform="matrix(1,0,0,1,-19.999999999999943,-416.6666666666666) translate(77.24938271604938 121.39206349206347)"/><use xlink:href="#K" transform="matrix(1,0,0,1,-19.999999999999943,-416.6666666666666) translate(90.08888888888889 121.39206349206347)"/><use xlink:href="#O" transform="matrix(1,0,0,1,-19.999999999999943,-416.6666666666666) translate(102.9283950617284 121.39206349206347)"/><use xlink:href="#M" transform="matrix(1,0,0,1,-19.999999999999943,-416.6666666666666) translate(179.96543209876543 121.39206349206347)"/><use xlink:href="#J" transform="matrix(1,0,0,1,-19.999999999999943,-416.6666666666666) translate(59.980246913580245 152.7571428571428)"/><use xlink:href="#K" transform="matrix(1,0,0,1,-19.999999999999943,-416.6666666666666) translate(72.81975308641975 152.7571428571428)"/><use xlink:href="#P" transform="matrix(1,0,0,1,-19.999999999999943,-416.6666666666666) translate(85.65925925925926 152.7571428571428)"/><use xlink:href="#M" transform="matrix(1,0,0,1,-19.999999999999943,-416.6666666666666) translate(197.23456790123458 152.7571428571428)"/><use xlink:href="#J" transform="matrix(1,0,0,1,-19.999999999999943,-416.6666666666666) translate(60.012345679012356 184.1222222222222)"/><use xlink:href="#K" transform="matrix(1,0,0,1,-19.999999999999943,-416.6666666666666) translate(72.85185185185186 184.1222222222222)"/><use xlink:href="#Q" transform="matrix(1,0,0,1,-19.999999999999943,-416.6666666666666) translate(85.69135802469137 184.1222222222222)"/><use xlink:href="#R" transform="matrix(1,0,0,1,-19.999999999999943,-416.6666666666666) translate(193.3506172839506 184.1222222222222)"/><use xlink:href="#S" transform="matrix(1,0,0,1,-19.999999999999943,-416.6666666666666) translate(224.10123456790123 184.1222222222222)"/><use xlink:href="#J" transform="matrix(1,0,0,1,-19.999999999999943,-416.6666666666666) translate(81.80740740740741 215.48730158730157)"/><use xlink:href="#K" transform="matrix(1,0,0,1,-19.999999999999943,-416.6666666666666) translate(94.64691358024692 215.48730158730157)"/><use xlink:href="#T" transform="matrix(1,0,0,1,-19.999999999999943,-416.6666666666666) translate(107.48641975308642 215.48730158730157)"/><use xlink:href="#U" transform="matrix(1,0,0,1,-19.999999999999943,-416.6666666666666) translate(184.39506172839504 215.48730158730157)"/><use xlink:href="#J" transform="matrix(1,0,0,1,-19.999999999999943,-416.6666666666666) translate(2.7802469135802426 246.85238095238094)"/><use xlink:href="#K" transform="matrix(1,0,0,1,-19.999999999999943,-416.6666666666666) translate(15.619753086419749 246.85238095238094)"/><use xlink:href="#V" transform="matrix(1,0,0,1,-19.999999999999943,-416.6666666666666) translate(28.459259259259255 246.85238095238094)"/><use xlink:href="#W" transform="matrix(1,0,0,1,-19.999999999999943,-416.6666666666666) translate(173.48148148148147 246.85238095238094)"/><use xlink:href="#J" transform="matrix(1,0,0,1,-19.999999999999943,-416.6666666666666) translate(47.07654320987655 278.2174603174603)"/><use xlink:href="#K" transform="matrix(1,0,0,1,-19.999999999999943,-416.6666666666666) translate(59.916049382716054 278.2174603174603)"/><use xlink:href="#X" transform="matrix(1,0,0,1,-19.999999999999943,-416.6666666666666) translate(72.75555555555556 278.2174603174603)"/><use xlink:href="#Y" transform="matrix(1,0,0,1,-19.999999999999943,-416.6666666666666) translate(174.12345679012347 278.2174603174603)"/><use xlink:href="#J" transform="matrix(1,0,0,1,-19.999999999999943,-416.6666666666666) translate(77.95555555555556 309.5825396825397)"/><use xlink:href="#K" transform="matrix(1,0,0,1,-19.999999999999943,-416.6666666666666) translate(90.79506172839507 309.5825396825397)"/><use xlink:href="#Z" transform="matrix(1,0,0,1,-19.999999999999943,-416.6666666666666) translate(103.63456790123458 309.5825396825397)"/><use xlink:href="#M" transform="matrix(1,0,0,1,-19.999999999999943,-416.6666666666666) translate(179.25925925925924 309.5825396825397)"/><use xlink:href="#J" transform="matrix(1,0,0,1,-19.999999999999943,-416.6666666666666) translate(95.22469135802469 340.94761904761907)"/><use xlink:href="#K" transform="matrix(1,0,0,1,-19.999999999999943,-416.6666666666666) translate(108.06419753086419 340.94761904761907)"/><use xlink:href="#aa" transform="matrix(1,0,0,1,-19.999999999999943,-416.6666666666666) translate(120.9037037037037 340.94761904761907)"/><use xlink:href="#ab" transform="matrix(1,0,0,1,-19.999999999999943,-416.6666666666666) translate(188.88888888888889 340.94761904761907)"/></g><path d="M-400 7.67a6 6 0 0 1 6-6h308a6 6 0 0 1 6 6V254a6 6 0 0 1-6 6h-308a6 6 0 0 1-6-6z" fill="none"/><g><use xlink:href="#e" transform="matrix(1,0,0,1,-399.99999999999994,1.6666666666667425) translate(130.4320987654321 53.94444444444445)"/><use xlink:href="#f" transform="matrix(1,0,0,1,-399.99999999999994,1.6666666666667425) translate(160 53.94444444444445)"/><use xlink:href="#g" transform="matrix(1,0,0,1,-399.99999999999994,1.6666666666667425) translate(83.5493827160494 80.61111111111111)"/><use xlink:href="#h" transform="matrix(1,0,0,1,-399.99999999999994,1.6666666666667425) translate(95.89506172839508 80.61111111111111)"/><use xlink:href="#i" transform="matrix(1,0,0,1,-399.99999999999994,1.6666666666667425) translate(108.24074074074075 80.61111111111111)"/><use xlink:href="#j" transform="matrix(1,0,0,1,-399.99999999999994,1.6666666666667425) translate(176.08024691358025 80.61111111111111)"/><use xlink:href="#g" transform="matrix(1,0,0,1,-399.99999999999994,1.6666666666667425) translate(57.68518518518519 107.27777777777777)"/><use xlink:href="#h" transform="matrix(1,0,0,1,-399.99999999999994,1.6666666666667425) translate(70.03086419753087 107.27777777777777)"/><use xlink:href="#ac" transform="matrix(1,0,0,1,-399.99999999999994,1.6666666666667425) translate(82.37654320987654 107.27777777777777)"/><use xlink:href="#j" transform="matrix(1,0,0,1,-399.99999999999994,1.6666666666667425) translate(201.94444444444446 107.27777777777777)"/><use xlink:href="#g" transform="matrix(1,0,0,1,-399.99999999999994,1.6666666666667425) translate(93.42592592592592 133.94444444444446)"/><use xlink:href="#h" transform="matrix(1,0,0,1,-399.99999999999994,1.6666666666667425) translate(105.77160493827161 133.94444444444446)"/><use xlink:href="#ad" transform="matrix(1,0,0,1,-399.99999999999994,1.6666666666667425) translate(118.11728395061728 133.94444444444446)"/><use xlink:href="#ae" transform="matrix(1,0,0,1,-399.99999999999994,1.6666666666667425) translate(178.48765432098764 133.94444444444446)"/><use xlink:href="#g" transform="matrix(1,0,0,1,-399.99999999999994,1.6666666666667425) translate(100.77160493827161 160.61111111111111)"/><use xlink:href="#h" transform="matrix(1,0,0,1,-399.99999999999994,1.6666666666667425) translate(113.11728395061729 160.61111111111111)"/><use xlink:href="#af" transform="matrix(1,0,0,1,-399.99999999999994,1.6666666666667425) translate(125.46296296296296 160.61111111111111)"/><use xlink:href="#f" transform="matrix(1,0,0,1,-399.99999999999994,1.6666666666667425) translate(189.6604938271605 160.61111111111111)"/><use xlink:href="#g" transform="matrix(1,0,0,1,-399.99999999999994,1.6666666666667425) translate(50.86419753086419 187.27777777777777)"/><use xlink:href="#h" transform="matrix(1,0,0,1,-399.99999999999994,1.6666666666667425) translate(63.209876543209866 187.27777777777777)"/><use xlink:href="#w" transform="matrix(1,0,0,1,-399.99999999999994,1.6666666666667425) translate(75.55555555555554 187.27777777777777)"/><use xlink:href="#x" transform="matrix(1,0,0,1,-399.99999999999994,1.6666666666667425) translate(205.06172839506172 187.27777777777777)"/><use xlink:href="#y" transform="matrix(1,0,0,1,-399.99999999999994,1.6666666666667425) translate(234.62962962962962 187.27777777777777)"/><use xlink:href="#g" transform="matrix(1,0,0,1,-399.99999999999994,1.6666666666667425) translate(49.5679012345679 213.94444444444446)"/><use xlink:href="#h" transform="matrix(1,0,0,1,-399.99999999999994,1.6666666666667425) translate(61.913580246913575 213.94444444444446)"/><use xlink:href="#F" transform="matrix(1,0,0,1,-399.99999999999994,1.6666666666667425) translate(74.25925925925925 213.94444444444446)"/><use xlink:href="#G" transform="matrix(1,0,0,1,-399.99999999999994,1.6666666666667425) translate(174.19753086419752 213.94444444444446)"/></g><path d="M-342.5-670H-514a6 6 0 0 0-6 6v224" stroke="#5e5e5e" stroke-width="2" fill="none"/><path d="M-341.5-669.02h-1.03V-671h1.03z" stroke="#5e5e5e" stroke-width=".05" fill="#5e5e5e"/><path d="M-520-424.74l-4.63-14.26h9.26z" stroke="#5e5e5e" stroke-width="2" fill="#5e5e5e"/><path d="M-17.5-670H134a6 6 0 0 1 6 6v185.67" stroke="#5e5e5e" stroke-width="2" fill="none"/><path d="M-17.47-669.02h-1.03V-671h1.03z" stroke="#5e5e5e" stroke-width=".05" fill="#5e5e5e"/><path d="M140-463.07l-4.63-14.26h9.26z" stroke="#5e5e5e" stroke-width="2" fill="#5e5e5e"/><path d="M-22.5-249.17H-340" stroke="#5e5e5e" stroke-width="2" fill="none"/><path d="M-21.5-248.2h-1.03v-1.94h1.03z" stroke="#5e5e5e" stroke-width=".05" fill="#5e5e5e"/><path d="M-355.26-249.17l14.26-4.63v9.27z" stroke="#5e5e5e" stroke-width="2" fill="#5e5e5e"/><path d="M-77.5 110H134a6 6 0 0 0 6-6V-20" stroke="#5e5e5e" stroke-width="2" fill="none"/><path d="M-77.47 110.97h-1.03v-1.94h1.03z" stroke="#5e5e5e" stroke-width=".05" fill="#5e5e5e"/><path d="M140-35.26L144.63-21h-9.26z" stroke="#5e5e5e" stroke-width="2" fill="#5e5e5e"/><defs><path d="M232-93c-1 65-40 97-104 97C67 4 28-28 28-90v-158h33c8 89-33 224 67 224 102 0 64-133 71-224h33v155" id="ag"/><path d="M135-143c-3-34-86-38-87 0 15 53 115 12 119 90S17 21 10-45l28-5c4 36 97 45 98 0-10-56-113-15-118-90-4-57 82-63 122-42 12 7 21 19 24 35" id="ah"/><path d="M100-194c63 0 86 42 84 106H49c0 40 14 67 53 68 26 1 43-12 49-29l28 8c-11 28-37 45-77 45C44 4 14-33 15-96c1-61 26-98 85-98zm52 81c6-60-76-77-97-28-3 7-6 17-6 28h103" id="ai"/><path d="M114-163C36-179 61-72 57 0H25l-1-190h30c1 12-1 29 2 39 6-27 23-49 58-41v29" id="aj"/><g id="a"><use transform="matrix(0.06172839506172839,0,0,0.06172839506172839,0,0)" xlink:href="#ag"/><use transform="matrix(0.06172839506172839,0,0,0.06172839506172839,15.987654320987653,0)" xlink:href="#ah"/><use transform="matrix(0.06172839506172839,0,0,0.06172839506172839,27.098765432098766,0)" xlink:href="#ai"/><use transform="matrix(0.06172839506172839,0,0,0.06172839506172839,39.44444444444444,0)" xlink:href="#aj"/></g><path d="M160-131c35 5 61 23 61 61C221 17 115-2 30 0v-248c76 3 177-17 177 60 0 33-19 50-47 57zm-97-11c50-1 110 9 110-42 0-47-63-36-110-37v79zm0 115c55-2 124 14 124-45 0-56-70-42-124-44v89" id="ak"/><path d="M84 4C-5 8 30-112 23-190h32v120c0 31 7 50 39 49 72-2 45-101 50-169h31l1 190h-30c-1-10 1-25-2-33-11 22-28 36-60 37" id="al"/><path d="M24-231v-30h32v30H24zM24 0v-190h32V0H24" id="am"/><path d="M117-194c89-4 53 116 60 194h-32v-121c0-31-8-49-39-48C34-167 62-67 57 0H25l-1-190h30c1 10-1 24 2 32 11-22 29-35 61-36" id="an"/><g id="b"><use transform="matrix(0.06419753086419754,0,0,0.06419753086419754,0,0)" xlink:href="#ak"/><use transform="matrix(0.06419753086419754,0,0,0.06419753086419754,15.407407407407408,0)" xlink:href="#al"/><use transform="matrix(0.06419753086419754,0,0,0.06419753086419754,28.246913580246915,0)" xlink:href="#ah"/><use transform="matrix(0.06419753086419754,0,0,0.06419753086419754,39.80246913580247,0)" xlink:href="#am"/><use transform="matrix(0.06419753086419754,0,0,0.06419753086419754,44.87407407407407,0)" xlink:href="#an"/><use transform="matrix(0.06419753086419754,0,0,0.06419753086419754,57.71358024691358,0)" xlink:href="#ai"/><use transform="matrix(0.06419753086419754,0,0,0.06419753086419754,70.55308641975309,0)" xlink:href="#ah"/><use transform="matrix(0.06419753086419754,0,0,0.06419753086419754,82.10864197530864,0)" xlink:href="#ah"/></g><path d="M30-248c87 1 191-15 191 75 0 78-77 80-158 76V0H30v-248zm33 125c57 0 124 11 124-50 0-59-68-47-124-48v98" id="ao"/><path d="M100-194c62-1 85 37 85 99 1 63-27 99-86 99S16-35 15-95c0-66 28-99 85-99zM99-20c44 1 53-31 53-75 0-43-8-75-51-75s-53 32-53 75 10 74 51 75" id="ap"/><path d="M85-194c31 0 48 13 60 33l-1-100h32l1 261h-30c-2-10 0-23-3-31C134-8 116 4 85 4 32 4 16-35 15-94c0-66 23-100 70-100zm9 24c-40 0-46 34-46 75 0 40 6 74 45 74 42 0 51-32 51-76 0-42-9-74-50-73" id="aq"/><path d="M96-169c-40 0-48 33-48 73s9 75 48 75c24 0 41-14 43-38l32 2c-6 37-31 61-74 61-59 0-76-41-82-99-10-93 101-131 147-64 4 7 5 14 7 22l-32 3c-4-21-16-35-41-35" id="ar"/><path d="M59-47c-2 24 18 29 38 22v24C64 9 27 4 27-40v-127H5v-23h24l9-43h21v43h35v23H59v120" id="as"/><g id="c"><use transform="matrix(0.06172839506172839,0,0,0.06172839506172839,0,0)" xlink:href="#ao"/><use transform="matrix(0.06172839506172839,0,0,0.06172839506172839,14.814814814814813,0)" xlink:href="#aj"/><use transform="matrix(0.06172839506172839,0,0,0.06172839506172839,22.160493827160494,0)" xlink:href="#ap"/><use transform="matrix(0.06172839506172839,0,0,0.06172839506172839,34.50617283950617,0)" xlink:href="#aq"/><use transform="matrix(0.06172839506172839,0,0,0.06172839506172839,46.85185185185185,0)" xlink:href="#al"/><use transform="matrix(0.06172839506172839,0,0,0.06172839506172839,59.197530864197525,0)" xlink:href="#ar"/><use transform="matrix(0.06172839506172839,0,0,0.06172839506172839,70.30864197530863,0)" xlink:href="#as"/><use transform="matrix(0.06172839506172839,0,0,0.06172839506172839,76.48148148148147,0)" xlink:href="#ap"/></g><path d="M185-189c-5-48-123-54-124 2 14 75 158 14 163 119 3 78-121 87-175 55-17-10-28-26-33-46l33-7c5 56 141 63 141-1 0-78-155-14-162-118-5-82 145-84 179-34 5 7 8 16 11 25" id="at"/><path d="M106-169C34-169 62-67 57 0H25v-261h32l-1 103c12-21 28-36 61-36 89 0 53 116 60 194h-32v-121c2-32-8-49-39-48" id="au"/><path d="M115-194c55 1 70 41 70 98S169 2 115 4C84 4 66-9 55-30l1 105H24l-1-265h31l2 30c10-21 28-34 59-34zm-8 174c40 0 45-34 45-75s-6-73-45-74c-42 0-51 32-51 76 0 43 10 73 51 73" id="av"/><path d="M143 0L79-87 56-68V0H24v-261h32v163l83-92h37l-77 82L181 0h-38" id="aw"/><g id="d"><use transform="matrix(0.06172839506172839,0,0,0.06172839506172839,0,0)" xlink:href="#at"/><use transform="matrix(0.06172839506172839,0,0,0.06172839506172839,14.814814814814813,0)" xlink:href="#au"/><use transform="matrix(0.06172839506172839,0,0,0.06172839506172839,27.160493827160494,0)" xlink:href="#ap"/><use transform="matrix(0.06172839506172839,0,0,0.06172839506172839,39.50617283950617,0)" xlink:href="#av"/><use transform="matrix(0.06172839506172839,0,0,0.06172839506172839,51.85185185185185,0)" xlink:href="#aw"/><use transform="matrix(0.06172839506172839,0,0,0.06172839506172839,62.96296296296296,0)" xlink:href="#ai"/><use transform="matrix(0.06172839506172839,0,0,0.06172839506172839,75.30864197530865,0)" xlink:href="#ai"/><use transform="matrix(0.06172839506172839,0,0,0.06172839506172839,87.65432098765433,0)" xlink:href="#av"/><use transform="matrix(0.06172839506172839,0,0,0.06172839506172839,100.00000000000001,0)" xlink:href="#ai"/><use transform="matrix(0.06172839506172839,0,0,0.06172839506172839,112.3456790123457,0)" xlink:href="#aj"/></g><path d="M33-154v-36h34v36H33zM33 0v-36h34V0H33" id="ax"/><g id="e"><use transform="matrix(0.06172839506172839,0,0,0.06172839506172839,0,0)" xlink:href="#am"/><use transform="matrix(0.06172839506172839,0,0,0.06172839506172839,4.876543209876543,0)" xlink:href="#aq"/><use transform="matrix(0.06172839506172839,0,0,0.06172839506172839,17.22222222222222,0)" xlink:href="#ax"/></g><path d="M33 0v-38h34V0H33" id="ay"/><g id="f"><use transform="matrix(0.06172839506172839,0,0,0.06172839506172839,0,0)" xlink:href="#am"/><use transform="matrix(0.06172839506172839,0,0,0.06172839506172839,4.876543209876543,0)" xlink:href="#an"/><use transform="matrix(0.06172839506172839,0,0,0.06172839506172839,17.22222222222222,0)" xlink:href="#as"/><use transform="matrix(0.06172839506172839,0,0,0.06172839506172839,23.39506172839506,0)" xlink:href="#ay"/></g><path d="M141-36C126-15 110 5 73 4 37 3 15-17 15-53c-1-64 63-63 125-63 3-35-9-54-41-54-24 1-41 7-42 31l-33-3c5-37 33-52 76-52 45 0 72 20 72 64v82c-1 20 7 32 28 27v20c-31 9-61-2-59-35zM48-53c0 20 12 33 32 33 41-3 63-29 60-74-43 2-92-5-92 41" id="az"/><path d="M210-169c-67 3-38 105-44 169h-31v-121c0-29-5-50-35-48C34-165 62-65 56 0H25l-1-190h30c1 10-1 24 2 32 10-44 99-50 107 0 11-21 27-35 58-36 85-2 47 119 55 194h-31v-121c0-29-5-49-35-48" id="aA"/><g id="i"><use transform="matrix(0.06172839506172839,0,0,0.06172839506172839,0,0)" xlink:href="#an"/><use transform="matrix(0.06172839506172839,0,0,0.06172839506172839,12.345679012345679,0)" xlink:href="#az"/><use transform="matrix(0.06172839506172839,0,0,0.06172839506172839,24.691358024691358,0)" xlink:href="#aA"/><use transform="matrix(0.06172839506172839,0,0,0.06172839506172839,43.148148148148145,0)" xlink:href="#ai"/><use transform="matrix(0.06172839506172839,0,0,0.06172839506172839,55.49382716049382,0)" xlink:href="#ax"/></g><path d="M177-190C167-65 218 103 67 71c-23-6-38-20-44-43l32-5c15 47 100 32 89-28v-30C133-14 115 1 83 1 29 1 15-40 15-95c0-56 16-97 71-98 29-1 48 16 59 35 1-10 0-23 2-32h30zM94-22c36 0 50-32 50-73 0-42-14-75-50-75-39 0-46 34-46 75s6 73 46 73" id="aB"/><g id="j"><use transform="matrix(0.06172839506172839,0,0,0.06172839506172839,0,0)" xlink:href="#ah"/><use transform="matrix(0.06172839506172839,0,0,0.06172839506172839,11.11111111111111,0)" xlink:href="#as"/><use transform="matrix(0.06172839506172839,0,0,0.06172839506172839,17.28395061728395,0)" xlink:href="#aj"/><use transform="matrix(0.06172839506172839,0,0,0.06172839506172839,24.629629629629626,0)" xlink:href="#am"/><use transform="matrix(0.06172839506172839,0,0,0.06172839506172839,29.50617283950617,0)" xlink:href="#an"/><use transform="matrix(0.06172839506172839,0,0,0.06172839506172839,41.85185185185185,0)" xlink:href="#aB"/><use transform="matrix(0.06172839506172839,0,0,0.06172839506172839,54.197530864197525,0)" xlink:href="#ay"/></g><g id="k"><use transform="matrix(0.06172839506172839,0,0,0.06172839506172839,0,0)" xlink:href="#an"/><use transform="matrix(0.06172839506172839,0,0,0.06172839506172839,12.345679012345679,0)" xlink:href="#am"/><use transform="matrix(0.06172839506172839,0,0,0.06172839506172839,17.22222222222222,0)" xlink:href="#ar"/><use transform="matrix(0.06172839506172839,0,0,0.06172839506172839,28.333333333333332,0)" xlink:href="#aw"/><use transform="matrix(0.06172839506172839,0,0,0.06172839506172839,39.44444444444444,0)" xlink:href="#ax"/></g><path d="M24 0v-261h32V0H24" id="aC"/><g id="l"><use transform="matrix(0.06172839506172839,0,0,0.06172839506172839,0,0)" xlink:href="#ai"/><use transform="matrix(0.06172839506172839,0,0,0.06172839506172839,12.345679012345679,0)" xlink:href="#aA"/><use transform="matrix(0.06172839506172839,0,0,0.06172839506172839,30.80246913580247,0)" xlink:href="#az"/><use transform="matrix(0.06172839506172839,0,0,0.06172839506172839,43.148148148148145,0)" xlink:href="#am"/><use transform="matrix(0.06172839506172839,0,0,0.06172839506172839,48.02469135802469,0)" xlink:href="#aC"/><use transform="matrix(0.06172839506172839,0,0,0.06172839506172839,52.901234567901234,0)" xlink:href="#ax"/></g><path d="M206 0h-36l-40-164L89 0H53L-1-190h32L70-26l43-164h34l41 164 42-164h31" id="aD"/><g id="m"><use transform="matrix(0.06172839506172839,0,0,0.06172839506172839,0,0)" xlink:href="#av"/><use transform="matrix(0.06172839506172839,0,0,0.06172839506172839,12.345679012345679,0)" xlink:href="#az"/><use transform="matrix(0.06172839506172839,0,0,0.06172839506172839,24.691358024691358,0)" xlink:href="#ah"/><use transform="matrix(0.06172839506172839,0,0,0.06172839506172839,35.80246913580247,0)" xlink:href="#ah"/><use transform="matrix(0.06172839506172839,0,0,0.06172839506172839,46.91358024691358,0)" xlink:href="#aD"/><use transform="matrix(0.06172839506172839,0,0,0.06172839506172839,62.901234567901234,0)" xlink:href="#ap"/><use transform="matrix(0.06172839506172839,0,0,0.06172839506172839,75.24691358024691,0)" xlink:href="#aj"/><use transform="matrix(0.06172839506172839,0,0,0.06172839506172839,82.5925925925926,0)" xlink:href="#aq"/><use transform="matrix(0.06172839506172839,0,0,0.06172839506172839,94.93827160493828,0)" xlink:href="#ax"/></g><g id="n"><use transform="matrix(0.06172839506172839,0,0,0.06172839506172839,0,0)" xlink:href="#av"/><use transform="matrix(0.06172839506172839,0,0,0.06172839506172839,12.345679012345679,0)" xlink:href="#au"/><use transform="matrix(0.06172839506172839,0,0,0.06172839506172839,24.691358024691358,0)" xlink:href="#ap"/><use transform="matrix(0.06172839506172839,0,0,0.06172839506172839,37.03703703703704,0)" xlink:href="#an"/><use transform="matrix(0.06172839506172839,0,0,0.06172839506172839,49.382716049382715,0)" xlink:href="#ai"/><use transform="matrix(0.06172839506172839,0,0,0.06172839506172839,61.72839506172839,0)" xlink:href="#ax"/></g><g id="o"><use transform="matrix(0.06172839506172839,0,0,0.06172839506172839,0,0)" xlink:href="#ah"/><use transform="matrix(0.06172839506172839,0,0,0.06172839506172839,11.11111111111111,0)" xlink:href="#au"/><use transform="matrix(0.06172839506172839,0,0,0.06172839506172839,23.45679012345679,0)" xlink:href="#ap"/><use transform="matrix(0.06172839506172839,0,0,0.06172839506172839,35.80246913580247,0)" xlink:href="#av"/><use transform="matrix(0.06172839506172839,0,0,0.06172839506172839,48.148148148148145,0)" xlink:href="#aw"/><use transform="matrix(0.06172839506172839,0,0,0.06172839506172839,59.25925925925925,0)" xlink:href="#ai"/><use transform="matrix(0.06172839506172839,0,0,0.06172839506172839,71.60493827160494,0)" xlink:href="#ai"/><use transform="matrix(0.06172839506172839,0,0,0.06172839506172839,83.95061728395062,0)" xlink:href="#av"/><use transform="matrix(0.06172839506172839,0,0,0.06172839506172839,96.2962962962963,0)" xlink:href="#ai"/><use transform="matrix(0.06172839506172839,0,0,0.06172839506172839,108.64197530864199,0)" xlink:href="#aj"/><use transform="matrix(0.06172839506172839,0,0,0.06172839506172839,115.98765432098767,0)" xlink:href="#ah"/><use transform="matrix(0.06172839506172839,0,0,0.06172839506172839,127.09876543209879,0)" xlink:href="#ax"/></g><path d="M26 75v-336h71v23H56V52h41v23H26" id="aE"/><path d="M3 75V52h41v-290H3v-23h71V75H3" id="aF"/><g id="p"><use transform="matrix(0.06172839506172839,0,0,0.06172839506172839,0,0)" xlink:href="#at"/><use transform="matrix(0.06172839506172839,0,0,0.06172839506172839,14.814814814814813,0)" xlink:href="#au"/><use transform="matrix(0.06172839506172839,0,0,0.06172839506172839,27.160493827160494,0)" xlink:href="#ap"/><use transform="matrix(0.06172839506172839,0,0,0.06172839506172839,39.50617283950617,0)" xlink:href="#av"/><use transform="matrix(0.06172839506172839,0,0,0.06172839506172839,51.85185185185185,0)" xlink:href="#aw"/><use transform="matrix(0.06172839506172839,0,0,0.06172839506172839,62.96296296296296,0)" xlink:href="#ai"/><use transform="matrix(0.06172839506172839,0,0,0.06172839506172839,75.30864197530865,0)" xlink:href="#ai"/><use transform="matrix(0.06172839506172839,0,0,0.06172839506172839,87.65432098765433,0)" xlink:href="#av"/><use transform="matrix(0.06172839506172839,0,0,0.06172839506172839,100.00000000000001,0)" xlink:href="#ai"/><use transform="matrix(0.06172839506172839,0,0,0.06172839506172839,112.3456790123457,0)" xlink:href="#aj"/><use transform="matrix(0.06172839506172839,0,0,0.06172839506172839,119.69135802469138,0)" xlink:href="#aE"/><use transform="matrix(0.06172839506172839,0,0,0.06172839506172839,125.86419753086422,0)" xlink:href="#aF"/><use transform="matrix(0.06172839506172839,0,0,0.06172839506172839,132.03703703703707,0)" xlink:href="#ay"/></g><path d="M-5 72V49h209v23H-5" id="aG"/><path d="M115-194c53 0 69 39 70 98 0 66-23 100-70 100C84 3 66-7 56-30L54 0H23l1-261h32v101c10-23 28-34 59-34zm-8 174c40 0 45-34 45-75 0-40-5-75-45-74-42 0-51 32-51 76 0 43 10 73 51 73" id="aH"/><g id="q"><use transform="matrix(0.06172839506172839,0,0,0.06172839506172839,0,0)" xlink:href="#ap"/><use transform="matrix(0.06172839506172839,0,0,0.06172839506172839,12.345679012345679,0)" xlink:href="#aD"/><use transform="matrix(0.06172839506172839,0,0,0.06172839506172839,28.333333333333332,0)" xlink:href="#an"/><use transform="matrix(0.06172839506172839,0,0,0.06172839506172839,40.67901234567901,0)" xlink:href="#aG"/><use transform="matrix(0.06172839506172839,0,0,0.06172839506172839,53.02469135802469,0)" xlink:href="#aH"/><use transform="matrix(0.06172839506172839,0,0,0.06172839506172839,65.37037037037037,0)" xlink:href="#al"/><use transform="matrix(0.06172839506172839,0,0,0.06172839506172839,77.71604938271605,0)" xlink:href="#ah"/><use transform="matrix(0.06172839506172839,0,0,0.06172839506172839,88.82716049382717,0)" xlink:href="#am"/><use transform="matrix(0.06172839506172839,0,0,0.06172839506172839,93.70370370370371,0)" xlink:href="#an"/><use transform="matrix(0.06172839506172839,0,0,0.06172839506172839,106.0493827160494,0)" xlink:href="#ai"/><use transform="matrix(0.06172839506172839,0,0,0.06172839506172839,118.39506172839508,0)" xlink:href="#ah"/><use transform="matrix(0.06172839506172839,0,0,0.06172839506172839,129.50617283950618,0)" xlink:href="#ah"/><use transform="matrix(0.06172839506172839,0,0,0.06172839506172839,140.6172839506173,0)" xlink:href="#ai"/><use transform="matrix(0.06172839506172839,0,0,0.06172839506172839,152.96296296296296,0)" xlink:href="#ah"/><use transform="matrix(0.06172839506172839,0,0,0.06172839506172839,164.07407407407408,0)" xlink:href="#ax"/></g><g id="r"><use transform="matrix(0.06172839506172839,0,0,0.06172839506172839,0,0)" xlink:href="#ak"/><use transform="matrix(0.06172839506172839,0,0,0.06172839506172839,14.814814814814813,0)" xlink:href="#al"/><use transform="matrix(0.06172839506172839,0,0,0.06172839506172839,27.160493827160494,0)" xlink:href="#ah"/><use transform="matrix(0.06172839506172839,0,0,0.06172839506172839,38.27160493827161,0)" xlink:href="#am"/><use transform="matrix(0.06172839506172839,0,0,0.06172839506172839,43.14814814814815,0)" xlink:href="#an"/><use transform="matrix(0.06172839506172839,0,0,0.06172839506172839,55.49382716049383,0)" xlink:href="#ai"/><use transform="matrix(0.06172839506172839,0,0,0.06172839506172839,67.8395061728395,0)" xlink:href="#ah"/><use transform="matrix(0.06172839506172839,0,0,0.06172839506172839,78.95061728395062,0)" xlink:href="#ah"/><use transform="matrix(0.06172839506172839,0,0,0.06172839506172839,90.06172839506173,0)" xlink:href="#aE"/><use transform="matrix(0.06172839506172839,0,0,0.06172839506172839,96.23456790123457,0)" xlink:href="#aF"/><use transform="matrix(0.06172839506172839,0,0,0.06172839506172839,102.4074074074074,0)" xlink:href="#ay"/></g><g id="s"><use transform="matrix(0.06172839506172839,0,0,0.06172839506172839,0,0)" xlink:href="#am"/><use transform="matrix(0.06172839506172839,0,0,0.06172839506172839,4.876543209876543,0)" xlink:href="#aA"/><use transform="matrix(0.06172839506172839,0,0,0.06172839506172839,23.33333333333333,0)" xlink:href="#az"/><use transform="matrix(0.06172839506172839,0,0,0.06172839506172839,35.679012345679006,0)" xlink:href="#aB"/><use transform="matrix(0.06172839506172839,0,0,0.06172839506172839,48.02469135802468,0)" xlink:href="#ai"/><use transform="matrix(0.06172839506172839,0,0,0.06172839506172839,60.37037037037036,0)" xlink:href="#ax"/></g><path d="M108 0H70L1-190h34L89-25l56-165h34" id="aI"/><g id="t"><use transform="matrix(0.06172839506172839,0,0,0.06172839506172839,0,0)" xlink:href="#az"/><use transform="matrix(0.06172839506172839,0,0,0.06172839506172839,12.345679012345679,0)" xlink:href="#ar"/><use transform="matrix(0.06172839506172839,0,0,0.06172839506172839,23.45679012345679,0)" xlink:href="#as"/><use transform="matrix(0.06172839506172839,0,0,0.06172839506172839,29.62962962962963,0)" xlink:href="#am"/><use transform="matrix(0.06172839506172839,0,0,0.06172839506172839,34.50617283950617,0)" xlink:href="#aI"/><use transform="matrix(0.06172839506172839,0,0,0.06172839506172839,45.61728395061728,0)" xlink:href="#ai"/><use transform="matrix(0.06172839506172839,0,0,0.06172839506172839,57.962962962962955,0)" xlink:href="#ax"/></g><g id="u"><use transform="matrix(0.06172839506172839,0,0,0.06172839506172839,0,0)" xlink:href="#aH"/><use transform="matrix(0.06172839506172839,0,0,0.06172839506172839,12.345679012345679,0)" xlink:href="#ap"/><use transform="matrix(0.06172839506172839,0,0,0.06172839506172839,24.691358024691358,0)" xlink:href="#ap"/><use transform="matrix(0.06172839506172839,0,0,0.06172839506172839,37.03703703703704,0)" xlink:href="#aC"/><use transform="matrix(0.06172839506172839,0,0,0.06172839506172839,41.91358024691358,0)" xlink:href="#ai"/><use transform="matrix(0.06172839506172839,0,0,0.06172839506172839,54.25925925925926,0)" xlink:href="#az"/><use transform="matrix(0.06172839506172839,0,0,0.06172839506172839,66.60493827160494,0)" xlink:href="#an"/><use transform="matrix(0.06172839506172839,0,0,0.06172839506172839,78.95061728395062,0)" xlink:href="#ay"/></g><g id="v"><use transform="matrix(0.06172839506172839,0,0,0.06172839506172839,0,0)" xlink:href="#ah"/><use transform="matrix(0.06172839506172839,0,0,0.06172839506172839,11.11111111111111,0)" xlink:href="#as"/><use transform="matrix(0.06172839506172839,0,0,0.06172839506172839,17.28395061728395,0)" xlink:href="#aj"/><use transform="matrix(0.06172839506172839,0,0,0.06172839506172839,23.395061728395063,0)" xlink:href="#ay"/></g><g id="w"><use transform="matrix(0.06172839506172839,0,0,0.06172839506172839,0,0)" xlink:href="#aH"/><use transform="matrix(0.06172839506172839,0,0,0.06172839506172839,12.345679012345679,0)" xlink:href="#al"/><use transform="matrix(0.06172839506172839,0,0,0.06172839506172839,24.691358024691358,0)" xlink:href="#ah"/><use transform="matrix(0.06172839506172839,0,0,0.06172839506172839,35.80246913580247,0)" xlink:href="#am"/><use transform="matrix(0.06172839506172839,0,0,0.06172839506172839,40.67901234567901,0)" xlink:href="#an"/><use transform="matrix(0.06172839506172839,0,0,0.06172839506172839,53.02469135802469,0)" xlink:href="#ai"/><use transform="matrix(0.06172839506172839,0,0,0.06172839506172839,65.37037037037037,0)" xlink:href="#ah"/><use transform="matrix(0.06172839506172839,0,0,0.06172839506172839,76.48148148148148,0)" xlink:href="#ah"/><use transform="matrix(0.06172839506172839,0,0,0.06172839506172839,87.5925925925926,0)" xlink:href="#aG"/><use transform="matrix(0.06172839506172839,0,0,0.06172839506172839,99.93827160493828,0)" xlink:href="#am"/><use transform="matrix(0.06172839506172839,0,0,0.06172839506172839,104.81481481481482,0)" xlink:href="#aq"/><use transform="matrix(0.06172839506172839,0,0,0.06172839506172839,117.16049382716051,0)" xlink:href="#ax"/></g><g id="x"><use transform="matrix(0.06172839506172839,0,0,0.06172839506172839,0,0)" xlink:href="#am"/><use transform="matrix(0.06172839506172839,0,0,0.06172839506172839,4.876543209876543,0)" xlink:href="#an"/><use transform="matrix(0.06172839506172839,0,0,0.06172839506172839,17.22222222222222,0)" xlink:href="#as"/></g><path d="M63-220v92h138v28H63V0H30v-248h175v28H63" id="aJ"/><path d="M194 0L95-120 63-95V0H30v-248h33v124l119-124h40L117-140 236 0h-42" id="aK"/><g id="y"><use transform="matrix(0.06172839506172839,0,0,0.06172839506172839,0,0)" xlink:href="#aJ"/><use transform="matrix(0.06172839506172839,0,0,0.06172839506172839,13.518518518518517,0)" xlink:href="#aK"/><use transform="matrix(0.06172839506172839,0,0,0.06172839506172839,28.33333333333333,0)" xlink:href="#ay"/></g><g id="z"><use transform="matrix(0.06172839506172839,0,0,0.06172839506172839,0,0)" xlink:href="#al"/><use transform="matrix(0.06172839506172839,0,0,0.06172839506172839,12.345679012345679,0)" xlink:href="#ah"/><use transform="matrix(0.06172839506172839,0,0,0.06172839506172839,23.45679012345679,0)" xlink:href="#ai"/><use transform="matrix(0.06172839506172839,0,0,0.06172839506172839,35.80246913580247,0)" xlink:href="#aj"/><use transform="matrix(0.06172839506172839,0,0,0.06172839506172839,43.148148148148145,0)" xlink:href="#aG"/><use transform="matrix(0.06172839506172839,0,0,0.06172839506172839,55.49382716049382,0)" xlink:href="#am"/><use transform="matrix(0.06172839506172839,0,0,0.06172839506172839,60.37037037037037,0)" xlink:href="#aq"/><use transform="matrix(0.06172839506172839,0,0,0.06172839506172839,72.71604938271605,0)" xlink:href="#ax"/></g><g id="A"><use transform="matrix(0.06172839506172839,0,0,0.06172839506172839,0,0)" xlink:href="#aH"/><use transform="matrix(0.06172839506172839,0,0,0.06172839506172839,12.345679012345679,0)" xlink:href="#ap"/><use transform="matrix(0.06172839506172839,0,0,0.06172839506172839,24.691358024691358,0)" xlink:href="#ap"/><use transform="matrix(0.06172839506172839,0,0,0.06172839506172839,37.03703703703704,0)" xlink:href="#aC"/><use transform="matrix(0.06172839506172839,0,0,0.06172839506172839,41.91358024691358,0)" xlink:href="#ai"/><use transform="matrix(0.06172839506172839,0,0,0.06172839506172839,54.25925925925926,0)" xlink:href="#az"/><use transform="matrix(0.06172839506172839,0,0,0.06172839506172839,66.60493827160494,0)" xlink:href="#an"/><use transform="matrix(0.06172839506172839,0,0,0.06172839506172839,78.95061728395062,0)" xlink:href="#ay"/></g><g id="B"><use transform="matrix(0.06172839506172839,0,0,0.06172839506172839,0,0)" xlink:href="#aj"/><use transform="matrix(0.06172839506172839,0,0,0.06172839506172839,7.345679012345679,0)" xlink:href="#ap"/><use transform="matrix(0.06172839506172839,0,0,0.06172839506172839,19.691358024691358,0)" xlink:href="#aC"/><use transform="matrix(0.06172839506172839,0,0,0.06172839506172839,24.5679012345679,0)" xlink:href="#aG"/><use transform="matrix(0.06172839506172839,0,0,0.06172839506172839,36.913580246913575,0)" xlink:href="#am"/><use transform="matrix(0.06172839506172839,0,0,0.06172839506172839,41.79012345679012,0)" xlink:href="#aq"/><use transform="matrix(0.06172839506172839,0,0,0.06172839506172839,54.1358024691358,0)" xlink:href="#ax"/></g><g id="C"><use transform="matrix(0.06172839506172839,0,0,0.06172839506172839,0,0)" xlink:href="#aJ"/><use transform="matrix(0.06172839506172839,0,0,0.06172839506172839,13.518518518518517,0)" xlink:href="#aK"/><use transform="matrix(0.06172839506172839,0,0,0.06172839506172839,28.33333333333333,0)" xlink:href="#ay"/></g><g id="D"><use transform="matrix(0.06172839506172839,0,0,0.06172839506172839,0,0)" xlink:href="#al"/><use transform="matrix(0.06172839506172839,0,0,0.06172839506172839,12.345679012345679,0)" xlink:href="#ah"/><use transform="matrix(0.06172839506172839,0,0,0.06172839506172839,23.45679012345679,0)" xlink:href="#ai"/><use transform="matrix(0.06172839506172839,0,0,0.06172839506172839,35.80246913580247,0)" xlink:href="#aj"/><use transform="matrix(0.06172839506172839,0,0,0.06172839506172839,43.148148148148145,0)" xlink:href="#ax"/></g><g id="E"><use transform="matrix(0.06172839506172839,0,0,0.06172839506172839,0,0)" xlink:href="#ag"/><use transform="matrix(0.06172839506172839,0,0,0.06172839506172839,15.987654320987653,0)" xlink:href="#ah"/><use transform="matrix(0.06172839506172839,0,0,0.06172839506172839,27.098765432098766,0)" xlink:href="#ai"/><use transform="matrix(0.06172839506172839,0,0,0.06172839506172839,39.44444444444444,0)" xlink:href="#aj"/><use transform="matrix(0.06172839506172839,0,0,0.06172839506172839,45.55555555555555,0)" xlink:href="#ay"/></g><g id="F"><use transform="matrix(0.06172839506172839,0,0,0.06172839506172839,0,0)" xlink:href="#aH"/><use transform="matrix(0.06172839506172839,0,0,0.06172839506172839,12.345679012345679,0)" xlink:href="#al"/><use transform="matrix(0.06172839506172839,0,0,0.06172839506172839,24.691358024691358,0)" xlink:href="#ah"/><use transform="matrix(0.06172839506172839,0,0,0.06172839506172839,35.80246913580247,0)" xlink:href="#am"/><use transform="matrix(0.06172839506172839,0,0,0.06172839506172839,40.67901234567901,0)" xlink:href="#an"/><use transform="matrix(0.06172839506172839,0,0,0.06172839506172839,53.02469135802469,0)" xlink:href="#ai"/><use transform="matrix(0.06172839506172839,0,0,0.06172839506172839,65.37037037037037,0)" xlink:href="#ah"/><use transform="matrix(0.06172839506172839,0,0,0.06172839506172839,76.48148148148148,0)" xlink:href="#ah"/><use transform="matrix(0.06172839506172839,0,0,0.06172839506172839,87.5925925925926,0)" xlink:href="#ax"/></g><g id="G"><use transform="matrix(0.06172839506172839,0,0,0.06172839506172839,0,0)" xlink:href="#ak"/><use transform="matrix(0.06172839506172839,0,0,0.06172839506172839,14.814814814814813,0)" xlink:href="#al"/><use transform="matrix(0.06172839506172839,0,0,0.06172839506172839,27.160493827160494,0)" xlink:href="#ah"/><use transform="matrix(0.06172839506172839,0,0,0.06172839506172839,38.27160493827161,0)" xlink:href="#am"/><use transform="matrix(0.06172839506172839,0,0,0.06172839506172839,43.14814814814815,0)" xlink:href="#an"/><use transform="matrix(0.06172839506172839,0,0,0.06172839506172839,55.49382716049383,0)" xlink:href="#ai"/><use transform="matrix(0.06172839506172839,0,0,0.06172839506172839,67.8395061728395,0)" xlink:href="#ah"/><use transform="matrix(0.06172839506172839,0,0,0.06172839506172839,78.95061728395062,0)" xlink:href="#ah"/><use transform="matrix(0.06172839506172839,0,0,0.06172839506172839,90.06172839506173,0)" xlink:href="#ay"/></g><g id="H"><use transform="matrix(0.06419753086419754,0,0,0.06419753086419754,0,0)" xlink:href="#am"/><use transform="matrix(0.06419753086419754,0,0,0.06419753086419754,5.071604938271605,0)" xlink:href="#aq"/><use transform="matrix(0.06419753086419754,0,0,0.06419753086419754,17.91111111111111,0)" xlink:href="#ax"/></g><g id="I"><use transform="matrix(0.06419753086419754,0,0,0.06419753086419754,0,0)" xlink:href="#am"/><use transform="matrix(0.06419753086419754,0,0,0.06419753086419754,5.071604938271605,0)" xlink:href="#an"/><use transform="matrix(0.06419753086419754,0,0,0.06419753086419754,17.91111111111111,0)" xlink:href="#as"/><use transform="matrix(0.06419753086419754,0,0,0.06419753086419754,24.330864197530865,0)" xlink:href="#ay"/></g><g id="L"><use transform="matrix(0.06419753086419754,0,0,0.06419753086419754,0,0)" xlink:href="#an"/><use transform="matrix(0.06419753086419754,0,0,0.06419753086419754,12.839506172839506,0)" xlink:href="#az"/><use transform="matrix(0.06419753086419754,0,0,0.06419753086419754,25.679012345679013,0)" xlink:href="#aA"/><use transform="matrix(0.06419753086419754,0,0,0.06419753086419754,44.87407407407407,0)" xlink:href="#ai"/><use transform="matrix(0.06419753086419754,0,0,0.06419753086419754,57.71358024691358,0)" xlink:href="#ax"/></g><g id="M"><use transform="matrix(0.06419753086419754,0,0,0.06419753086419754,0,0)" xlink:href="#ah"/><use transform="matrix(0.06419753086419754,0,0,0.06419753086419754,11.555555555555557,0)" xlink:href="#as"/><use transform="matrix(0.06419753086419754,0,0,0.06419753086419754,17.97530864197531,0)" xlink:href="#aj"/><use transform="matrix(0.06419753086419754,0,0,0.06419753086419754,25.614814814814817,0)" xlink:href="#am"/><use transform="matrix(0.06419753086419754,0,0,0.06419753086419754,30.686419753086422,0)" xlink:href="#an"/><use transform="matrix(0.06419753086419754,0,0,0.06419753086419754,43.52592592592593,0)" xlink:href="#aB"/><use transform="matrix(0.06419753086419754,0,0,0.06419753086419754,56.36543209876544,0)" xlink:href="#ay"/></g><g id="N"><use transform="matrix(0.06419753086419754,0,0,0.06419753086419754,0,0)" xlink:href="#ai"/><use transform="matrix(0.06419753086419754,0,0,0.06419753086419754,12.839506172839506,0)" xlink:href="#aA"/><use transform="matrix(0.06419753086419754,0,0,0.06419753086419754,32.03456790123457,0)" xlink:href="#az"/><use transform="matrix(0.06419753086419754,0,0,0.06419753086419754,44.87407407407407,0)" xlink:href="#am"/><use transform="matrix(0.06419753086419754,0,0,0.06419753086419754,49.94567901234568,0)" xlink:href="#aC"/><use transform="matrix(0.06419753086419754,0,0,0.06419753086419754,55.01728395061728,0)" xlink:href="#ax"/></g><g id="O"><use transform="matrix(0.06419753086419754,0,0,0.06419753086419754,0,0)" xlink:href="#av"/><use transform="matrix(0.06419753086419754,0,0,0.06419753086419754,12.839506172839506,0)" xlink:href="#au"/><use transform="matrix(0.06419753086419754,0,0,0.06419753086419754,25.679012345679013,0)" xlink:href="#ap"/><use transform="matrix(0.06419753086419754,0,0,0.06419753086419754,38.51851851851852,0)" xlink:href="#an"/><use transform="matrix(0.06419753086419754,0,0,0.06419753086419754,51.358024691358025,0)" xlink:href="#ai"/><use transform="matrix(0.06419753086419754,0,0,0.06419753086419754,64.19753086419753,0)" xlink:href="#ax"/></g><g id="P"><use transform="matrix(0.06419753086419754,0,0,0.06419753086419754,0,0)" xlink:href="#av"/><use transform="matrix(0.06419753086419754,0,0,0.06419753086419754,12.839506172839506,0)" xlink:href="#az"/><use transform="matrix(0.06419753086419754,0,0,0.06419753086419754,25.679012345679013,0)" xlink:href="#ah"/><use transform="matrix(0.06419753086419754,0,0,0.06419753086419754,37.23456790123457,0)" xlink:href="#ah"/><use transform="matrix(0.06419753086419754,0,0,0.06419753086419754,48.79012345679013,0)" xlink:href="#aD"/><use transform="matrix(0.06419753086419754,0,0,0.06419753086419754,65.41728395061729,0)" xlink:href="#ap"/><use transform="matrix(0.06419753086419754,0,0,0.06419753086419754,78.2567901234568,0)" xlink:href="#aj"/><use transform="matrix(0.06419753086419754,0,0,0.06419753086419754,85.8962962962963,0)" xlink:href="#aq"/><use transform="matrix(0.06419753086419754,0,0,0.06419753086419754,98.7358024691358,0)" xlink:href="#ax"/></g><g id="Q"><use transform="matrix(0.06419753086419754,0,0,0.06419753086419754,0,0)" xlink:href="#au"/><use transform="matrix(0.06419753086419754,0,0,0.06419753086419754,12.839506172839506,0)" xlink:href="#ap"/><use transform="matrix(0.06419753086419754,0,0,0.06419753086419754,25.679012345679013,0)" xlink:href="#aC"/><use transform="matrix(0.06419753086419754,0,0,0.06419753086419754,30.75061728395062,0)" xlink:href="#aq"/><use transform="matrix(0.06419753086419754,0,0,0.06419753086419754,43.590123456790124,0)" xlink:href="#ai"/><use transform="matrix(0.06419753086419754,0,0,0.06419753086419754,56.42962962962963,0)" xlink:href="#aj"/><use transform="matrix(0.06419753086419754,0,0,0.06419753086419754,64.06913580246913,0)" xlink:href="#aG"/><use transform="matrix(0.06419753086419754,0,0,0.06419753086419754,76.90864197530863,0)" xlink:href="#am"/><use transform="matrix(0.06419753086419754,0,0,0.06419753086419754,81.98024691358025,0)" xlink:href="#aq"/><use transform="matrix(0.06419753086419754,0,0,0.06419753086419754,94.81975308641975,0)" xlink:href="#ax"/></g><g id="R"><use transform="matrix(0.06419753086419754,0,0,0.06419753086419754,0,0)" xlink:href="#am"/><use transform="matrix(0.06419753086419754,0,0,0.06419753086419754,5.071604938271605,0)" xlink:href="#an"/><use transform="matrix(0.06419753086419754,0,0,0.06419753086419754,17.91111111111111,0)" xlink:href="#as"/></g><g id="S"><use transform="matrix(0.06419753086419754,0,0,0.06419753086419754,0,0)" xlink:href="#aJ"/><use transform="matrix(0.06419753086419754,0,0,0.06419753086419754,14.05925925925926,0)" xlink:href="#aK"/><use transform="matrix(0.06419753086419754,0,0,0.06419753086419754,29.46666666666667,0)" xlink:href="#ay"/></g><g id="T"><use transform="matrix(0.06419753086419754,0,0,0.06419753086419754,0,0)" xlink:href="#au"/><use transform="matrix(0.06419753086419754,0,0,0.06419753086419754,12.839506172839506,0)" xlink:href="#ap"/><use transform="matrix(0.06419753086419754,0,0,0.06419753086419754,25.679012345679013,0)" xlink:href="#aC"/><use transform="matrix(0.06419753086419754,0,0,0.06419753086419754,30.75061728395062,0)" xlink:href="#aq"/><use transform="matrix(0.06419753086419754,0,0,0.06419753086419754,43.590123456790124,0)" xlink:href="#ai"/><use transform="matrix(0.06419753086419754,0,0,0.06419753086419754,56.42962962962963,0)" xlink:href="#aj"/><use transform="matrix(0.06419753086419754,0,0,0.06419753086419754,64.06913580246913,0)" xlink:href="#ax"/></g><g id="U"><use transform="matrix(0.06419753086419754,0,0,0.06419753086419754,0,0)" xlink:href="#ag"/><use transform="matrix(0.06419753086419754,0,0,0.06419753086419754,16.627160493827162,0)" xlink:href="#ah"/><use transform="matrix(0.06419753086419754,0,0,0.06419753086419754,28.18271604938272,0)" xlink:href="#ai"/><use transform="matrix(0.06419753086419754,0,0,0.06419753086419754,41.022222222222226,0)" xlink:href="#aj"/><use transform="matrix(0.06419753086419754,0,0,0.06419753086419754,47.37777777777778,0)" xlink:href="#ay"/></g><g id="V"><use transform="matrix(0.06419753086419754,0,0,0.06419753086419754,0,0)" xlink:href="#ah"/><use transform="matrix(0.06419753086419754,0,0,0.06419753086419754,11.555555555555557,0)" xlink:href="#au"/><use transform="matrix(0.06419753086419754,0,0,0.06419753086419754,24.395061728395063,0)" xlink:href="#ap"/><use transform="matrix(0.06419753086419754,0,0,0.06419753086419754,37.23456790123457,0)" xlink:href="#av"/><use transform="matrix(0.06419753086419754,0,0,0.06419753086419754,50.074074074074076,0)" xlink:href="#aw"/><use transform="matrix(0.06419753086419754,0,0,0.06419753086419754,61.62962962962963,0)" xlink:href="#ai"/><use transform="matrix(0.06419753086419754,0,0,0.06419753086419754,74.46913580246914,0)" xlink:href="#ai"/><use transform="matrix(0.06419753086419754,0,0,0.06419753086419754,87.30864197530865,0)" xlink:href="#av"/><use transform="matrix(0.06419753086419754,0,0,0.06419753086419754,100.14814814814815,0)" xlink:href="#ai"/><use transform="matrix(0.06419753086419754,0,0,0.06419753086419754,112.98765432098766,0)" xlink:href="#aj"/><use transform="matrix(0.06419753086419754,0,0,0.06419753086419754,120.62716049382718,0)" xlink:href="#ah"/><use transform="matrix(0.06419753086419754,0,0,0.06419753086419754,132.18271604938272,0)" xlink:href="#ax"/></g><g id="W"><use transform="matrix(0.06419753086419754,0,0,0.06419753086419754,0,0)" xlink:href="#at"/><use transform="matrix(0.06419753086419754,0,0,0.06419753086419754,15.407407407407408,0)" xlink:href="#au"/><use transform="matrix(0.06419753086419754,0,0,0.06419753086419754,28.246913580246915,0)" xlink:href="#ap"/><use transform="matrix(0.06419753086419754,0,0,0.06419753086419754,41.08641975308642,0)" xlink:href="#av"/><use transform="matrix(0.06419753086419754,0,0,0.06419753086419754,53.925925925925924,0)" xlink:href="#aw"/><use transform="matrix(0.06419753086419754,0,0,0.06419753086419754,65.48148148148148,0)" xlink:href="#ai"/><use transform="matrix(0.06419753086419754,0,0,0.06419753086419754,78.32098765432099,0)" xlink:href="#ai"/><use transform="matrix(0.06419753086419754,0,0,0.06419753086419754,91.1604938271605,0)" xlink:href="#av"/><use transform="matrix(0.06419753086419754,0,0,0.06419753086419754,104,0)" xlink:href="#ai"/><use transform="matrix(0.06419753086419754,0,0,0.06419753086419754,116.8395061728395,0)" xlink:href="#aj"/><use transform="matrix(0.06419753086419754,0,0,0.06419753086419754,124.47901234567901,0)" xlink:href="#aE"/><use transform="matrix(0.06419753086419754,0,0,0.06419753086419754,130.89876543209877,0)" xlink:href="#aF"/><use transform="matrix(0.06419753086419754,0,0,0.06419753086419754,137.31851851851852,0)" xlink:href="#ay"/></g><g id="X"><use transform="matrix(0.06419753086419754,0,0,0.06419753086419754,0,0)" xlink:href="#av"/><use transform="matrix(0.06419753086419754,0,0,0.06419753086419754,12.839506172839506,0)" xlink:href="#aj"/><use transform="matrix(0.06419753086419754,0,0,0.06419753086419754,20.479012345679013,0)" xlink:href="#ap"/><use transform="matrix(0.06419753086419754,0,0,0.06419753086419754,33.318518518518516,0)" xlink:href="#aq"/><use transform="matrix(0.06419753086419754,0,0,0.06419753086419754,46.15802469135802,0)" xlink:href="#al"/><use transform="matrix(0.06419753086419754,0,0,0.06419753086419754,58.99753086419753,0)" xlink:href="#ar"/><use transform="matrix(0.06419753086419754,0,0,0.06419753086419754,70.55308641975309,0)" xlink:href="#as"/><use transform="matrix(0.06419753086419754,0,0,0.06419753086419754,76.97283950617285,0)" xlink:href="#ah"/><use transform="matrix(0.06419753086419754,0,0,0.06419753086419754,88.5283950617284,0)" xlink:href="#ax"/></g><g id="Y"><use transform="matrix(0.06419753086419754,0,0,0.06419753086419754,0,0)" xlink:href="#ao"/><use transform="matrix(0.06419753086419754,0,0,0.06419753086419754,15.407407407407408,0)" xlink:href="#aj"/><use transform="matrix(0.06419753086419754,0,0,0.06419753086419754,23.046913580246915,0)" xlink:href="#ap"/><use transform="matrix(0.06419753086419754,0,0,0.06419753086419754,35.88641975308642,0)" xlink:href="#aq"/><use transform="matrix(0.06419753086419754,0,0,0.06419753086419754,48.72592592592593,0)" xlink:href="#al"/><use transform="matrix(0.06419753086419754,0,0,0.06419753086419754,61.565432098765434,0)" xlink:href="#ar"/><use transform="matrix(0.06419753086419754,0,0,0.06419753086419754,73.120987654321,0)" xlink:href="#as"/><use transform="matrix(0.06419753086419754,0,0,0.06419753086419754,79.54074074074074,0)" xlink:href="#aE"/><use transform="matrix(0.06419753086419754,0,0,0.06419753086419754,85.96049382716049,0)" xlink:href="#aF"/><use transform="matrix(0.06419753086419754,0,0,0.06419753086419754,92.38024691358024,0)" xlink:href="#ay"/></g><g id="Z"><use transform="matrix(0.06419753086419754,0,0,0.06419753086419754,0,0)" xlink:href="#am"/><use transform="matrix(0.06419753086419754,0,0,0.06419753086419754,5.071604938271605,0)" xlink:href="#aA"/><use transform="matrix(0.06419753086419754,0,0,0.06419753086419754,24.26666666666667,0)" xlink:href="#az"/><use transform="matrix(0.06419753086419754,0,0,0.06419753086419754,37.10617283950617,0)" xlink:href="#aB"/><use transform="matrix(0.06419753086419754,0,0,0.06419753086419754,49.94567901234568,0)" xlink:href="#ai"/><use transform="matrix(0.06419753086419754,0,0,0.06419753086419754,62.785185185185185,0)" xlink:href="#ax"/></g><g id="aa"><use transform="matrix(0.06419753086419754,0,0,0.06419753086419754,0,0)" xlink:href="#av"/><use transform="matrix(0.06419753086419754,0,0,0.06419753086419754,12.839506172839506,0)" xlink:href="#aC"/><use transform="matrix(0.06419753086419754,0,0,0.06419753086419754,17.91111111111111,0)" xlink:href="#az"/><use transform="matrix(0.06419753086419754,0,0,0.06419753086419754,30.75061728395062,0)" xlink:href="#an"/><use transform="matrix(0.06419753086419754,0,0,0.06419753086419754,43.590123456790124,0)" xlink:href="#ah"/><use transform="matrix(0.06419753086419754,0,0,0.06419753086419754,55.14567901234568,0)" xlink:href="#ax"/></g><g id="ab"><use transform="matrix(0.06419753086419754,0,0,0.06419753086419754,0,0)" xlink:href="#aJ"/><use transform="matrix(0.06419753086419754,0,0,0.06419753086419754,14.05925925925926,0)" xlink:href="#aK"/><use transform="matrix(0.06419753086419754,0,0,0.06419753086419754,29.46666666666667,0)" xlink:href="#ay"/></g><g id="ac"><use transform="matrix(0.06172839506172839,0,0,0.06172839506172839,0,0)" xlink:href="#aq"/><use transform="matrix(0.06172839506172839,0,0,0.06172839506172839,12.345679012345679,0)" xlink:href="#ai"/><use transform="matrix(0.06172839506172839,0,0,0.06172839506172839,24.691358024691358,0)" xlink:href="#ah"/><use transform="matrix(0.06172839506172839,0,0,0.06172839506172839,35.80246913580247,0)" xlink:href="#ar"/><use transform="matrix(0.06172839506172839,0,0,0.06172839506172839,46.91358024691358,0)" xlink:href="#aj"/><use transform="matrix(0.06172839506172839,0,0,0.06172839506172839,54.25925925925926,0)" xlink:href="#am"/><use transform="matrix(0.06172839506172839,0,0,0.06172839506172839,59.135802469135804,0)" xlink:href="#av"/><use transform="matrix(0.06172839506172839,0,0,0.06172839506172839,71.48148148148148,0)" xlink:href="#as"/><use transform="matrix(0.06172839506172839,0,0,0.06172839506172839,77.65432098765432,0)" xlink:href="#am"/><use transform="matrix(0.06172839506172839,0,0,0.06172839506172839,82.53086419753086,0)" xlink:href="#ap"/><use transform="matrix(0.06172839506172839,0,0,0.06172839506172839,94.87654320987654,0)" xlink:href="#an"/><use transform="matrix(0.06172839506172839,0,0,0.06172839506172839,107.22222222222223,0)" xlink:href="#ax"/></g><g id="ad"><use transform="matrix(0.06172839506172839,0,0,0.06172839506172839,0,0)" xlink:href="#av"/><use transform="matrix(0.06172839506172839,0,0,0.06172839506172839,12.345679012345679,0)" xlink:href="#aj"/><use transform="matrix(0.06172839506172839,0,0,0.06172839506172839,19.691358024691358,0)" xlink:href="#am"/><use transform="matrix(0.06172839506172839,0,0,0.06172839506172839,24.5679012345679,0)" xlink:href="#ar"/><use transform="matrix(0.06172839506172839,0,0,0.06172839506172839,35.67901234567901,0)" xlink:href="#ai"/><use transform="matrix(0.06172839506172839,0,0,0.06172839506172839,48.02469135802469,0)" xlink:href="#ax"/></g><path d="M101-234c-31-9-42 10-38 44h38v23H63V0H32v-167H5v-23h27c-7-52 17-82 69-68v24" id="aL"/><g id="ae"><use transform="matrix(0.06172839506172839,0,0,0.06172839506172839,0,0)" xlink:href="#aL"/><use transform="matrix(0.06172839506172839,0,0,0.06172839506172839,6.172839506172839,0)" xlink:href="#aC"/><use transform="matrix(0.06172839506172839,0,0,0.06172839506172839,11.049382716049383,0)" xlink:href="#ap"/><use transform="matrix(0.06172839506172839,0,0,0.06172839506172839,23.395061728395063,0)" xlink:href="#az"/><use transform="matrix(0.06172839506172839,0,0,0.06172839506172839,35.74074074074074,0)" xlink:href="#as"/><use transform="matrix(0.06172839506172839,0,0,0.06172839506172839,41.91358024691358,0)" xlink:href="#ay"/></g><g id="af"><use transform="matrix(0.06172839506172839,0,0,0.06172839506172839,0,0)" xlink:href="#ah"/><use transform="matrix(0.06172839506172839,0,0,0.06172839506172839,11.11111111111111,0)" xlink:href="#as"/><use transform="matrix(0.06172839506172839,0,0,0.06172839506172839,17.28395061728395,0)" xlink:href="#ap"/><use transform="matrix(0.06172839506172839,0,0,0.06172839506172839,29.629629629629626,0)" xlink:href="#ar"/><use transform="matrix(0.06172839506172839,0,0,0.06172839506172839,40.74074074074073,0)" xlink:href="#aw"/><use transform="matrix(0.06172839506172839,0,0,0.06172839506172839,51.85185185185185,0)" xlink:href="#ax"/></g></defs></g></svg>